<?xml version="1.0" encoding="UTF-8" standalone="no"?>
<!-- Created with Inkscape (http://www.inkscape.org/) -->

<svg
   xmlns:dc="http://purl.org/dc/elements/1.1/"
   xmlns:cc="http://creativecommons.org/ns#"
   xmlns:rdf="http://www.w3.org/1999/02/22-rdf-syntax-ns#"
   xmlns:svg="http://www.w3.org/2000/svg"
   xmlns="http://www.w3.org/2000/svg"
   xmlns:sodipodi="http://sodipodi.sourceforge.net/DTD/sodipodi-0.dtd"
   xmlns:inkscape="http://www.inkscape.org/namespaces/inkscape"
   width="100"
   height="100"
   viewBox="0 0 26.458333 26.458334"
   version="1.1"
   id="svg8"
   inkscape:export-filename="C:\Users\DrewHarwell\jar_64.png"
   inkscape:export-xdpi="61.439999"
   inkscape:export-ydpi="61.439999"
   sodipodi:docname="pb.svg"
   inkscape:version="0.92.4 (5da689c313, 2019-01-14)">
  <defs
     id="defs2">
    <inkscape:path-effect
       effect="bspline"
       id="path-effect4615"
       is_visible="true"
       weight="33.333333"
       steps="2"
       helper_size="0"
       apply_no_weight="true"
       apply_with_weight="true"
       only_selected="false" />
  </defs>
  <sodipodi:namedview
     id="base"
     pagecolor="#ffffff"
     bordercolor="#666666"
     borderopacity="1.0"
     inkscape:pageopacity="0.0"
     inkscape:pageshadow="2"
     inkscape:zoom="0.08"
     inkscape:cx="781.50533"
     inkscape:cy="25.196284"
     inkscape:document-units="mm"
     inkscape:current-layer="layer1"
     showgrid="false"
     units="px"
     inkscape:snap-bbox="true"
     inkscape:snap-bbox-midpoints="false"
     inkscape:bbox-paths="false"
     inkscape:bbox-nodes="true"
     inkscape:window-width="1595"
     inkscape:window-height="915"
     inkscape:window-x="1983"
     inkscape:window-y="91"
     inkscape:window-maximized="0">
    <inkscape:grid
       type="xygrid"
       id="grid815" />
  </sodipodi:namedview>
  <metadata
     id="metadata5">
    <rdf:RDF>
      <cc:Work
         rdf:about="">
        <dc:format>image/svg+xml</dc:format>
        <dc:type
           rdf:resource="http://purl.org/dc/dcmitype/StillImage" />
        <dc:title />
      </cc:Work>
    </rdf:RDF>
  </metadata>
  <g
     inkscape:label="Layer 1"
     inkscape:groupmode="layer"
     id="layer1"
     transform="translate(0,-270.54165)">
    <g
       id="g4664"
       style="stroke:#ffffff;stroke-width:1.85208333;stroke-miterlimit:4;stroke-dasharray:none;stroke-opacity:1"
       transform="translate(0,-0.2199022)">
      <rect
         style="fill:none;fill-opacity:1;stroke:#ffffff;stroke-width:1.85208333;stroke-linecap:round;stroke-linejoin:round;stroke-miterlimit:4;stroke-dasharray:none;stroke-opacity:1"
         id="rect4655"
         width="19.738213"
         height="16.803255"
         x="3.3398871"
         y="278.32904"
         ry="2.3759975" />
      <path
         style="fill:none;fill-opacity:1;stroke:#ffffff;stroke-width:1.85208333;stroke-linecap:round;stroke-linejoin:round;stroke-miterlimit:4;stroke-dasharray:none;stroke-opacity:1"
         d="m 3.3423799,285.77471 c -1.38e-5,-0.96946 4.4174231,-1.75536 9.8666111,-1.75536 5.449189,0 9.866626,0.7859 9.866612,1.75536 v 8.62533 c -1.4e-5,0.96946 -4.417442,1.75535 -9.866612,1.75535 -5.4491688,0 -9.8665975,-0.78589 -9.8666111,-1.75535 z"
         id="path4657"
         inkscape:connector-curvature="0"
         sodipodi:nodetypes="csccscc" />
      <path
         style="fill:none;fill-opacity:1;stroke:#ffffff;stroke-width:1.85208333;stroke-linecap:round;stroke-linejoin:round;stroke-miterlimit:4;stroke-dasharray:none;stroke-opacity:1"
         d="m 3.2742296,277.25943 c 0,0.96947 4.4479448,1.75536 9.9347624,1.75536 5.486818,0 9.934762,-0.78589 9.934762,-1.75536 v -3.69808 c 0,-0.96947 -4.447944,-1.75538 -9.934762,-1.75538 -5.4868176,0 -9.9347625,0.78591 -9.9347624,1.75538 z"
         id="path4659"
         inkscape:connector-curvature="0"
         sodipodi:nodetypes="csccscc" />
    </g>
    <rect
       style="fill:none;fill-opacity:1;stroke:#000000;stroke-width:1.21708333;stroke-linecap:round;stroke-linejoin:round;stroke-miterlimit:4;stroke-dasharray:none;stroke-opacity:1"
       id="rect819"
       width="19.738213"
       height="16.803215"
       x="3.3398871"
       y="278.10913"
       ry="2.7758684"
       rx="2.7758684" />
    <path
       style="fill:#eac10a;fill-opacity:1;stroke:#000000;stroke-width:1.21708333;stroke-linecap:round;stroke-linejoin:round;stroke-miterlimit:4;stroke-dasharray:none;stroke-opacity:1"
       d="m 3.3423799,285.55481 c -1.38e-5,-0.96946 4.4174231,-1.75536 9.8666111,-1.75536 5.449189,0 9.866626,0.7859 9.866612,1.75536 v 8.62533 c -1.4e-5,0.96946 -4.417442,1.75535 -9.866612,1.75535 -5.4491688,0 -9.8665975,-0.78589 -9.8666111,-1.75535 z"
       id="path817"
       inkscape:connector-curvature="0"
       sodipodi:nodetypes="csccscc" />
    <path
       style="fill:#ffffff;fill-opacity:1;stroke:none;stroke-width:1.14518094;stroke-linecap:round;stroke-linejoin:round;stroke-miterlimit:4;stroke-dasharray:none;stroke-opacity:1"
       d="m 22.480374,281.35972 c 0,-0.91966 -4.151139,-1.66519 -9.271828,-1.66519 -5.1206892,0 -9.2718282,0.74553 -9.2718282,1.66519 v 9.88513 c 0,0.91967 0,-1.21753 9.3809082,-1.21753 9.380909,0 9.162748,2.1372 9.162748,1.21753 z"
       id="path4609"
       inkscape:connector-curvature="0"
       sodipodi:nodetypes="cscczcc" />
    <path
       sodipodi:nodetypes="cscczcc"
       inkscape:connector-curvature="0"
       id="path4611"
       d="m 22.480374,282.11367 c 0,-0.91966 -4.151139,-1.66519 -9.271828,-1.66519 -5.1206892,0 -9.2718282,0.74553 -9.2718282,1.66519 v 8.37723 c 0,0.91967 0,-1.21753 9.3809082,-1.21753 9.380909,0 9.162748,2.1372 9.162748,1.21753 z"
       style="fill:#eac10a;fill-opacity:1;stroke:none;stroke-width:1.14518094;stroke-linecap:round;stroke-linejoin:round;stroke-miterlimit:4;stroke-dasharray:none;stroke-opacity:1" />
    <path
       sodipodi:nodetypes="cscczcc"
       inkscape:connector-curvature="0"
       id="path4575"
       d="m 3.9371487,291.40974 c 0,0.91966 4.151139,1.66519 9.2718283,1.66519 5.120689,0 9.271828,-0.74553 9.271828,-1.66519 v -9.88513 c 0,-0.91967 0,1.21753 -9.380908,1.21753 -9.3809089,0 -9.1627484,-2.1372 -9.1627483,-1.21753 z"
       style="fill:#0981e9;fill-opacity:1;stroke:none;stroke-width:1.14518094;stroke-linecap:round;stroke-linejoin:round;stroke-miterlimit:4;stroke-dasharray:none;stroke-opacity:1" />
    <path
       style="fill:#0981e9;fill-opacity:1;stroke:#000000;stroke-width:1.21708333;stroke-linecap:round;stroke-linejoin:round;stroke-miterlimit:4;stroke-dasharray:none;stroke-opacity:1"
       d="m 3.2742296,277.03953 c 0,0.96947 4.4479448,1.75536 9.9347624,1.75536 5.486818,0 9.934762,-0.78589 9.934762,-1.75536 v -3.69808 c 0,-0.96947 -4.447944,-1.75538 -9.934762,-1.75538 -5.4868176,0 -9.9347625,0.78591 -9.9347624,1.75538 z"
       id="ellipse853"
       inkscape:connector-curvature="0"
       sodipodi:nodetypes="csccscc" />
    <ellipse
       id="ellipse4579"
       style="fill:#4fa9f8;fill-opacity:1;stroke:none;stroke-width:1.21708333;stroke-linecap:round;stroke-linejoin:round;stroke-miterlimit:4;stroke-dasharray:none;stroke-opacity:1"
       ry="1.3855873"
       rx="9.3227711"
       cy="273.50772"
       cx="13.208993" />
    <text
       xml:space="preserve"
       style="font-style:normal;font-variant:normal;font-weight:normal;font-stretch:normal;font-size:4.93888903px;line-height:1.25;font-family:'Arial Rounded MT Bold';-inkscape-font-specification:'Arial Rounded MT Bold, Normal';font-variant-ligatures:normal;font-variant-caps:normal;font-variant-numeric:normal;font-feature-settings:normal;text-align:center;letter-spacing:0px;word-spacing:0px;writing-mode:lr-tb;text-anchor:middle;fill:#ffffff;fill-opacity:1;stroke:#000000;stroke-width:0.50270832;stroke-linejoin:round;stroke-miterlimit:4;stroke-dasharray:none;stroke-opacity:1;paint-order:markers stroke fill"
       id="text4627"
       y="289.31631"
       x="13"><tspan
         sodipodi:role="line"
         id="tspan4625"
         x="15"
         y="289.31631"
         style="font-style:normal;font-variant:normal;font-weight:normal;font-stretch:normal;font-size:4.93888903px;font-family:'Arial Rounded MT Bold';-inkscape-font-specification:'Arial Rounded MT Bold, Normal';font-variant-ligatures:normal;font-variant-caps:normal;font-variant-numeric:normal;font-feature-settings:normal;text-align:center;writing-mode:lr-tb;text-anchor:middle;fill:#ffffff;fill-opacity:1;stroke:#000000;stroke-width:0.50270832;stroke-linejoin:round;stroke-miterlimit:4;stroke-dasharray:none;stroke-opacity:1;paint-order:markers stroke fill">MySQL</tspan></text>
  </g>
</svg>
